<svg id="Capa_1" enable-background="new 0 0 512 512" height="512" viewBox="0 0 512 512" width="512" xmlns="http://www.w3.org/2000/svg"><g><g><g><path d="m260 111c-8.27 0-15-6.73-15-15 0-8.28-6.72-15-15-15h-140c-8.28 0-15 6.72-15 15 0 8.27-6.73 15-15 15-8.28 0-15 6.72-15 15v140c0 8.28 6.72 15 15 15 8.27 0 15 6.73 15 15 0 8.28 6.72 15 15 15h140c8.28 0 15-6.72 15-15 0-8.27 6.73-15 15-15 8.28 0 15-6.72 15-15v-140c0-8.28-6.72-15-15-15z" fill="#6ba7ff"/></g></g><path d="m275 126v140c0 8.28-6.72 15-15 15-8.27 0-15 6.73-15 15 0 8.28-6.72 15-15 15h-70v-230h70c8.28 0 15 6.72 15 15 0 8.27 6.73 15 15 15 8.28 0 15 6.72 15 15z" fill="#5e69e2"/><g><path d="m498.61 333.3-135.91-135.91c-2.82-2.83-6.49-4.29-10.2-4.38-3.97-.11-7.98 1.35-11.01 4.38l-135.9 135.91c-5.86 5.85-5.86 15.35 0 21.21l135.9 135.9c2.93 2.93 6.77 4.39 10.61 4.39.13 0 .27 0 .4-.01 3.71-.09 7.38-1.55 10.2-4.38l135.91-135.9c5.85-5.86 5.85-15.36 0-21.21z" fill="#ff6378"/></g><path d="m498.61 354.51-135.91 135.9c-2.82 2.83-6.49 4.29-10.2 4.38v-301.78c3.71.09 7.38 1.55 10.2 4.38l135.91 135.91c5.85 5.85 5.85 15.35 0 21.21z" fill="#ff1f3d"/><path d="m512 176c0 87.67-71.78 159-160 159-87.67 0-159-71.33-159-159s71.33-159 159-159c88.22 0 160 71.33 160 159z" fill="#a2e786"/><path d="m512 176c0 87.67-71.78 159-160 159v-318c88.22 0 160 71.33 160 159z" fill="#00cb75"/><path d="m421.12 183.926c-1.306 2.119 3.226-2.656-58.08 58.65-5.819 5.839-15.259 5.867-21.13.08-61.951-61.002-57.7-56.555-59.03-58.73-8.33-13.53-8.84-30.02-1.38-44.11 14.296-27.005 49.335-30.284 70.5-10.58 21.19-19.727 56.223-16.389 70.5 10.58 7.46 14.09 6.95 30.58-1.38 44.11z" fill="#00cb75"/><path d="m421.12 183.926c-1.306 2.119 3.226-2.656-58.08 58.65-3.185 3.196-7.597 4.62-11.04 4.39v-117.73c8.4-7.82 19.65-12.61 32-12.61 34.642 0 55.032 38.206 37.12 67.3z" fill="#009859"/><path d="m319 336c0 87.67-71.33 159-159 159-88.22 0-160-71.33-160-159s71.78-159 160-159c87.67 0 159 71.33 159 159z" fill="#ffe278"/><path d="m319 336c0 87.67-71.33 159-159 159v-318c87.67 0 159 71.33 159 159z" fill="#ffb454"/><path d="m112 311c-8.256 0-15-6.754-15-15 0-9.02 7.911-15.814 16.47-14.93 8.519.874 14.276 8.46 13.46 16.41-.82 7.898-7.434 13.52-14.93 13.52z" fill="#ffb454"/><path d="m208 311c-8.216 0-15-6.711-15-15 0-9.01 7.903-15.815 16.47-14.93 8.532.875 14.273 8.471 13.45 16.4-.605 7.411-7.085 13.53-14.92 13.53z" fill="#ff8659"/><path d="m216.32 388.48c-34.201 22.807-78.419 22.82-112.64 0-6.89-4.59-8.76-13.91-4.16-20.8 4.59-6.89 13.91-8.76 20.8-4.16 24.062 16.055 55.26 16.08 79.36 0 6.89-4.6 16.2-2.73 20.8 4.16s2.73 16.21-4.16 20.8z" fill="#ffb454"/><path d="m216.32 388.48c-17.11 11.41-36.71 17.11-56.32 17.11v-30.02c13.82 0 27.63-4.01 39.68-12.05 6.89-4.6 16.2-2.73 20.8 4.16s2.73 16.21-4.16 20.8z" fill="#ff8659"/></g></svg>